# MagicaVoxel @ Ephtracy

# group
o 

# material
mtllib saksı parça.mtl
usemtl palette

# normals
vn -1 0 0
vn 1 0 0
vn 0 0 1
vn 0 0 -1
vn 0 -1 0
vn 0 1 0

# texcoords
vt 0.00195312 0.5
vt 0.00585938 0.5
vt 0.00976562 0.5
vt 0.0136719 0.5
vt 0.0175781 0.5
vt 0.0214844 0.5

# verts
v -0.5 0.1 0.3
v -0.5 0.1 0.2
v -0.5 0.3 0.3
v -0.5 0.3 0.2
v -0.5 0.4 0.3
v -0.5 0.4 0.2
v -0.4 0 0.3
v -0.4 0 0.2
v -0.4 0.1 0.3
v -0.4 0.1 0.2
v -0.4 0.4 0.3
v -0.4 0.4 0.2
v -0.4 0.5 0.3
v -0.4 0.5 0.2
v -0.4 0.6 0.3
v -0.4 0.6 0.2
v 0.2 0 0.3
v 0.2 0 0.2
v 0.2 0.1 0.3
v 0.2 0.1 0.2
v 0.2 0.4 0.3
v 0.2 0.4 0.2
v 0.2 0.5 0.3
v 0.2 0.5 0.2
v 0.2 0.6 0.3
v 0.2 0.6 0.2
v 0.3 0.1 0.3
v 0.3 0.1 0.2
v 0.3 0.3 0.3
v 0.3 0.3 0.2
v 0.3 0.4 0.3
v 0.3 0.4 0.2
v -0.5 0.1 0.3
v -0.5 0.3 0.3
v -0.5 0.4 0.3
v -0.4 0 0.3
v -0.4 0.1 0.3
v -0.4 0.2 0.3
v -0.4 0.3 0.3
v -0.4 0.4 0.3
v -0.4 0.5 0.3
v -0.4 0.6 0.3
v -0.3 0 0.3
v -0.3 0.1 0.3
v -0.3 0.2 0.3
v -0.3 0.3 0.3
v -0.3 0.4 0.3
v -0.3 0.5 0.3
v -0.3 0.6 0.3
v -0.2 0 0.3
v -0.2 0.1 0.3
v -0.2 0.2 0.3
v -0.2 0.3 0.3
v -0.2 0.4 0.3
v -0.2 0.5 0.3
v -0.2 0.6 0.3
v -0.1 0 0.3
v -0.1 0.1 0.3
v -0.1 0.2 0.3
v -0.1 0.3 0.3
v -0.1 0.4 0.3
v -0.1 0.5 0.3
v -0.1 0.6 0.3
v 0 0 0.3
v 0 0.1 0.3
v 0 0.2 0.3
v 0 0.4 0.3
v 0 0.5 0.3
v 0 0.6 0.3
v 0.1 0 0.3
v 0.1 0.1 0.3
v 0.1 0.2 0.3
v 0.1 0.3 0.3
v 0.1 0.4 0.3
v 0.1 0.5 0.3
v 0.2 0 0.3
v 0.2 0.1 0.3
v 0.2 0.2 0.3
v 0.2 0.4 0.3
v 0.2 0.5 0.3
v 0.2 0.6 0.3
v 0.3 0.1 0.3
v 0.3 0.3 0.3
v 0.3 0.4 0.3
v -0.5 0.1 0.2
v -0.5 0.3 0.2
v -0.5 0.4 0.2
v -0.4 0 0.2
v -0.4 0.1 0.2
v -0.4 0.2 0.2
v -0.4 0.3 0.2
v -0.4 0.4 0.2
v -0.4 0.5 0.2
v -0.4 0.6 0.2
v -0.3 0 0.2
v -0.3 0.1 0.2
v -0.3 0.2 0.2
v -0.3 0.3 0.2
v -0.3 0.4 0.2
v -0.3 0.5 0.2
v -0.3 0.6 0.2
v -0.2 0 0.2
v -0.2 0.1 0.2
v -0.2 0.2 0.2
v -0.2 0.3 0.2
v -0.2 0.4 0.2
v -0.2 0.5 0.2
v -0.2 0.6 0.2
v -0.1 0 0.2
v -0.1 0.1 0.2
v -0.1 0.2 0.2
v -0.1 0.3 0.2
v -0.1 0.4 0.2
v -0.1 0.5 0.2
v -0.1 0.6 0.2
v 0 0 0.2
v 0 0.1 0.2
v 0 0.2 0.2
v 0 0.4 0.2
v 0 0.5 0.2
v 0 0.6 0.2
v 0.1 0 0.2
v 0.1 0.1 0.2
v 0.1 0.2 0.2
v 0.1 0.3 0.2
v 0.1 0.4 0.2
v 0.1 0.5 0.2
v 0.2 0 0.2
v 0.2 0.1 0.2
v 0.2 0.2 0.2
v 0.2 0.4 0.2
v 0.2 0.5 0.2
v 0.2 0.6 0.2
v 0.3 0.1 0.2
v 0.3 0.3 0.2
v 0.3 0.4 0.2
v -0.4 0 0.3
v -0.3 0 0.3
v -0.2 0 0.3
v -0.1 0 0.3
v 0 0 0.3
v 0.1 0 0.3
v 0.2 0 0.3
v -0.4 0 0.2
v -0.3 0 0.2
v -0.2 0 0.2
v -0.1 0 0.2
v 0 0 0.2
v 0.1 0 0.2
v 0.2 0 0.2
v -0.5 0.1 0.3
v -0.4 0.1 0.3
v 0.2 0.1 0.3
v 0.3 0.1 0.3
v -0.5 0.1 0.2
v -0.4 0.1 0.2
v 0.2 0.1 0.2
v 0.3 0.1 0.2
v -0.5 0.4 0.3
v -0.4 0.4 0.3
v 0.2 0.4 0.3
v 0.3 0.4 0.3
v -0.5 0.4 0.2
v -0.4 0.4 0.2
v 0.2 0.4 0.2
v 0.3 0.4 0.2
v -0.4 0.6 0.3
v -0.3 0.6 0.3
v -0.2 0.6 0.3
v -0.1 0.6 0.3
v 0 0.6 0.3
v 0.2 0.6 0.3
v -0.4 0.6 0.2
v -0.3 0.6 0.2
v -0.2 0.6 0.2
v -0.1 0.6 0.2
v 0 0.6 0.2
v 0.2 0.6 0.2

# faces
f 3/4/1 2/4/1 1/4/1
f 4/4/1 2/4/1 3/4/1
f 5/3/1 4/3/1 3/3/1
f 6/3/1 4/3/1 5/3/1
f 9/2/1 8/2/1 7/2/1
f 10/2/1 8/2/1 9/2/1
f 13/6/1 12/6/1 11/6/1
f 14/6/1 12/6/1 13/6/1
f 15/3/1 14/3/1 13/3/1
f 16/3/1 14/3/1 15/3/1
f 17/4/2 18/4/2 19/4/2
f 19/4/2 18/4/2 20/4/2
f 21/1/2 22/1/2 23/1/2
f 23/1/2 22/1/2 24/1/2
f 23/4/2 24/4/2 25/4/2
f 25/4/2 24/4/2 26/4/2
f 27/2/2 28/2/2 29/2/2
f 29/2/2 28/2/2 30/2/2
f 29/4/2 30/4/2 31/4/2
f 31/4/2 30/4/2 32/4/2
f 37/4/3 34/4/3 33/4/3
f 38/4/3 34/4/3 37/4/3
f 39/3/3 35/3/3 34/3/3
f 39/4/3 34/4/3 38/4/3
f 40/3/3 35/3/3 39/3/3
f 43/2/3 38/2/3 37/2/3
f 43/2/3 37/2/3 36/2/3
f 44/2/3 38/2/3 43/2/3
f 45/4/3 39/4/3 38/4/3
f 45/2/3 38/2/3 44/2/3
f 45/4/3 40/4/3 39/4/3
f 46/4/3 40/4/3 45/4/3
f 47/6/3 41/6/3 40/6/3
f 47/4/3 40/4/3 46/4/3
f 48/3/3 42/3/3 41/3/3
f 48/6/3 41/6/3 47/6/3
f 49/3/3 42/3/3 48/3/3
f 50/1/3 44/1/3 43/1/3
f 51/2/3 45/2/3 44/2/3
f 51/1/3 44/1/3 50/1/3
f 52/1/3 46/1/3 45/1/3
f 52/2/3 45/2/3 51/2/3
f 53/3/3 47/3/3 46/3/3
f 53/1/3 46/1/3 52/1/3
f 54/2/3 48/2/3 47/2/3
f 54/3/3 47/3/3 53/3/3
f 55/1/3 49/1/3 48/1/3
f 55/2/3 48/2/3 54/2/3
f 56/1/3 49/1/3 55/1/3
f 57/6/3 51/6/3 50/6/3
f 58/5/3 52/5/3 51/5/3
f 58/6/3 51/6/3 57/6/3
f 59/3/3 53/3/3 52/3/3
f 59/5/3 52/5/3 58/5/3
f 60/6/3 54/6/3 53/6/3
f 60/3/3 53/3/3 59/3/3
f 61/3/3 55/3/3 54/3/3
f 61/6/3 54/6/3 60/6/3
f 62/4/3 56/4/3 55/4/3
f 62/3/3 55/3/3 61/3/3
f 63/4/3 56/4/3 62/4/3
f 64/2/3 58/2/3 57/2/3
f 65/4/3 59/4/3 58/4/3
f 65/2/3 58/2/3 64/2/3
f 66/6/3 60/6/3 59/6/3
f 66/4/3 59/4/3 65/4/3
f 67/2/3 61/2/3 60/2/3
f 67/2/3 62/2/3 61/2/3
f 68/6/3 63/6/3 62/6/3
f 68/2/3 62/2/3 67/2/3
f 69/6/3 63/6/3 68/6/3
f 70/6/3 65/6/3 64/6/3
f 71/3/3 66/3/3 65/3/3
f 71/6/3 65/6/3 70/6/3
f 72/6/3 60/6/3 66/6/3
f 72/3/3 66/3/3 71/3/3
f 73/2/3 67/2/3 60/2/3
f 73/6/3 60/6/3 72/6/3
f 74/4/3 68/4/3 67/4/3
f 74/2/3 67/2/3 73/2/3
f 74/4/3 69/4/3 68/4/3
f 75/4/3 69/4/3 74/4/3
f 76/4/3 71/4/3 70/4/3
f 77/3/3 72/3/3 71/3/3
f 77/4/3 71/4/3 76/4/3
f 78/2/3 73/2/3 72/2/3
f 78/3/3 72/3/3 77/3/3
f 79/4/3 74/4/3 73/4/3
f 79/1/3 75/1/3 74/1/3
f 80/4/3 69/4/3 75/4/3
f 80/1/3 75/1/3 79/1/3
f 81/4/3 69/4/3 80/4/3
f 82/2/3 78/2/3 77/2/3
f 83/4/3 79/4/3 73/4/3
f 83/2/3 78/2/3 82/2/3
f 83/2/3 73/2/3 78/2/3
f 84/4/3 79/4/3 83/4/3
f 85/4/4 86/4/4 89/4/4
f 89/4/4 86/4/4 90/4/4
f 86/3/4 87/3/4 91/3/4
f 90/4/4 86/4/4 91/4/4
f 91/3/4 87/3/4 92/3/4
f 89/2/4 90/2/4 95/2/4
f 88/2/4 89/2/4 95/2/4
f 95/2/4 90/2/4 96/2/4
f 90/4/4 91/4/4 97/4/4
f 96/2/4 90/2/4 97/2/4
f 91/4/4 92/4/4 97/4/4
f 97/4/4 92/4/4 98/4/4
f 92/6/4 93/6/4 99/6/4
f 98/4/4 92/4/4 99/4/4
f 93/3/4 94/3/4 100/3/4
f 99/6/4 93/6/4 100/6/4
f 100/3/4 94/3/4 101/3/4
f 95/1/4 96/1/4 102/1/4
f 96/2/4 97/2/4 103/2/4
f 102/1/4 96/1/4 103/1/4
f 97/1/4 98/1/4 104/1/4
f 103/2/4 97/2/4 104/2/4
f 98/3/4 99/3/4 105/3/4
f 104/1/4 98/1/4 105/1/4
f 99/2/4 100/2/4 106/2/4
f 105/3/4 99/3/4 106/3/4
f 100/1/4 101/1/4 107/1/4
f 106/2/4 100/2/4 107/2/4
f 107/1/4 101/1/4 108/1/4
f 102/6/4 103/6/4 109/6/4
f 103/5/4 104/5/4 110/5/4
f 109/6/4 103/6/4 110/6/4
f 104/3/4 105/3/4 111/3/4
f 110/5/4 104/5/4 111/5/4
f 105/6/4 106/6/4 112/6/4
f 111/3/4 105/3/4 112/3/4
f 106/3/4 107/3/4 113/3/4
f 112/6/4 106/6/4 113/6/4
f 107/4/4 108/4/4 114/4/4
f 113/3/4 107/3/4 114/3/4
f 114/4/4 108/4/4 115/4/4
f 109/2/4 110/2/4 116/2/4
f 110/4/4 111/4/4 117/4/4
f 116/2/4 110/2/4 117/2/4
f 111/6/4 112/6/4 118/6/4
f 117/4/4 111/4/4 118/4/4
f 112/2/4 113/2/4 119/2/4
f 113/2/4 114/2/4 119/2/4
f 114/6/4 115/6/4 120/6/4
f 119/2/4 114/2/4 120/2/4
f 120/6/4 115/6/4 121/6/4
f 116/6/4 117/6/4 122/6/4
f 117/3/4 118/3/4 123/3/4
f 122/6/4 117/6/4 123/6/4
f 118/6/4 112/6/4 124/6/4
f 123/3/4 118/3/4 124/3/4
f 112/2/4 119/2/4 125/2/4
f 124/6/4 112/6/4 125/6/4
f 119/4/4 120/4/4 126/4/4
f 125/2/4 119/2/4 126/2/4
f 120/4/4 121/4/4 126/4/4
f 126/4/4 121/4/4 127/4/4
f 122/4/4 123/4/4 128/4/4
f 123/3/4 124/3/4 129/3/4
f 128/4/4 123/4/4 129/4/4
f 124/2/4 125/2/4 130/2/4
f 129/3/4 124/3/4 130/3/4
f 125/4/4 126/4/4 131/4/4
f 126/1/4 127/1/4 131/1/4
f 127/4/4 121/4/4 132/4/4
f 131/1/4 127/1/4 132/1/4
f 132/4/4 121/4/4 133/4/4
f 129/2/4 130/2/4 134/2/4
f 125/4/4 131/4/4 135/4/4
f 134/2/4 130/2/4 135/2/4
f 130/2/4 125/2/4 135/2/4
f 135/4/4 131/4/4 136/4/4
f 144/2/5 138/2/5 137/2/5
f 145/1/5 139/1/5 138/1/5
f 145/2/5 138/2/5 144/2/5
f 146/6/5 140/6/5 139/6/5
f 146/1/5 139/1/5 145/1/5
f 147/2/5 141/2/5 140/2/5
f 147/6/5 140/6/5 146/6/5
f 148/6/5 142/6/5 141/6/5
f 148/2/5 141/2/5 147/2/5
f 149/4/5 143/4/5 142/4/5
f 149/6/5 142/6/5 148/6/5
f 150/4/5 143/4/5 149/4/5
f 155/4/5 152/4/5 151/4/5
f 156/4/5 152/4/5 155/4/5
f 157/2/5 154/2/5 153/2/5
f 158/2/5 154/2/5 157/2/5
f 159/3/6 160/3/6 163/3/6
f 163/3/6 160/3/6 164/3/6
f 161/4/6 162/4/6 165/4/6
f 165/4/6 162/4/6 166/4/6
f 167/3/6 168/3/6 173/3/6
f 168/1/6 169/1/6 174/1/6
f 173/3/6 168/3/6 174/3/6
f 169/4/6 170/4/6 175/4/6
f 174/1/6 169/1/6 175/1/6
f 170/6/6 171/6/6 176/6/6
f 175/4/6 170/4/6 176/4/6
f 171/4/6 172/4/6 177/4/6
f 176/6/6 171/6/6 177/6/6
f 177/4/6 172/4/6 178/4/6
